<mxfile modified="2019-11-08T12:37:13.013Z" host="www.draw.io" agent="Mozilla/5.0 (Windows NT 10.0; Win64; x64) AppleWebKit/537.36 (KHTML, like Gecko) Chrome/78.0.3904.87 Safari/537.36" etag="yIB2qY-63YdFRZ4bb1TI" version="12.2.2" type="github" pages="1">
  <diagram id="ZVo3xf8XB1SoQEMQ752W" name="Page-1">
    <mxGraphModel dx="1536" dy="1651" grid="1" gridSize="10" guides="1" tooltips="1" connect="1" arrows="1" fold="1" page="1" pageScale="1" pageWidth="1169" pageHeight="827" math="0" shadow="0">
      <root>
        <mxCell id="0"/>
        <mxCell id="1" parent="0"/>
        <mxCell id="-weK3m_R_vGw2RZOWdCi-1" value="&lt;h1&gt;&lt;font style=&quot;font-size: 14px&quot;&gt;aim:&amp;nbsp;recommend a restaurant&lt;/font&gt;&lt;/h1&gt;&lt;p&gt;&lt;font size=&quot;3&quot;&gt;1. food (mandatory if no 2)&lt;br&gt;&lt;/font&gt;&lt;/p&gt;&lt;p&gt;&lt;font size=&quot;3&quot;&gt;2. restaurant (mandatory if no 1)&lt;/font&gt;&lt;/p&gt;&lt;p&gt;&lt;font size=&quot;3&quot;&gt;3. location&lt;/font&gt;&lt;br&gt;&lt;/p&gt;" style="text;html=1;strokeColor=none;fillColor=none;spacing=5;spacingTop=-20;whiteSpace=wrap;overflow=hidden;rounded=0;" parent="1" vertex="1">
          <mxGeometry x="205" y="50" width="250" height="131" as="geometry"/>
        </mxCell>
        <mxCell id="XeTQekSoMw8yuTuayGuz-7" style="edgeStyle=orthogonalEdgeStyle;rounded=0;orthogonalLoop=1;jettySize=auto;html=1;exitX=1;exitY=0.5;exitDx=0;exitDy=0;entryX=0;entryY=0.5;entryDx=0;entryDy=0;" parent="1" source="XeTQekSoMw8yuTuayGuz-11" target="XeTQekSoMw8yuTuayGuz-40" edge="1">
          <mxGeometry relative="1" as="geometry">
            <mxPoint x="972" y="481.5" as="targetPoint"/>
          </mxGeometry>
        </mxCell>
        <mxCell id="XeTQekSoMw8yuTuayGuz-8" value="no both1 and 2" style="text;html=1;resizable=0;points=[];align=center;verticalAlign=middle;labelBackgroundColor=#ffffff;" parent="XeTQekSoMw8yuTuayGuz-7" vertex="1" connectable="0">
          <mxGeometry x="-0.0701" y="5" relative="1" as="geometry">
            <mxPoint as="offset"/>
          </mxGeometry>
        </mxCell>
        <mxCell id="wu-LaleV2zq8ELQ2vTht-6" value="if 1 and 3" style="edgeStyle=orthogonalEdgeStyle;rounded=0;orthogonalLoop=1;jettySize=auto;html=1;exitX=0.5;exitY=1;exitDx=0;exitDy=0;entryX=0.5;entryY=0;entryDx=0;entryDy=0;" parent="1" source="XeTQekSoMw8yuTuayGuz-11" target="wu-LaleV2zq8ELQ2vTht-5" edge="1">
          <mxGeometry x="0.7312" relative="1" as="geometry">
            <mxPoint as="offset"/>
            <Array as="points">
              <mxPoint x="591" y="440"/>
              <mxPoint x="691" y="440"/>
            </Array>
          </mxGeometry>
        </mxCell>
        <mxCell id="wu-LaleV2zq8ELQ2vTht-9" value="if 2 and 3" style="edgeStyle=orthogonalEdgeStyle;rounded=0;orthogonalLoop=1;jettySize=auto;html=1;exitX=0.5;exitY=1;exitDx=0;exitDy=0;entryX=0.5;entryY=0;entryDx=0;entryDy=0;" parent="1" source="XeTQekSoMw8yuTuayGuz-11" target="wu-LaleV2zq8ELQ2vTht-8" edge="1">
          <mxGeometry x="0.8606" relative="1" as="geometry">
            <mxPoint as="offset"/>
            <Array as="points">
              <mxPoint x="591" y="440"/>
              <mxPoint x="887" y="440"/>
            </Array>
          </mxGeometry>
        </mxCell>
        <mxCell id="wu-LaleV2zq8ELQ2vTht-13" value="if 1 and 2 and 3" style="edgeStyle=orthogonalEdgeStyle;rounded=0;orthogonalLoop=1;jettySize=auto;html=1;exitX=0.5;exitY=1;exitDx=0;exitDy=0;entryX=0.5;entryY=0;entryDx=0;entryDy=0;" parent="1" source="XeTQekSoMw8yuTuayGuz-11" target="wu-LaleV2zq8ELQ2vTht-12" edge="1">
          <mxGeometry x="0.9033" relative="1" as="geometry">
            <mxPoint as="offset"/>
            <Array as="points">
              <mxPoint x="591" y="440"/>
              <mxPoint x="1083" y="440"/>
            </Array>
          </mxGeometry>
        </mxCell>
        <mxCell id="XeTQekSoMw8yuTuayGuz-11" value="&lt;font style=&quot;font-size: 14px&quot;&gt;slot 1?&lt;br&gt;slot 2?&lt;br&gt;slot 3?&lt;br&gt;&lt;/font&gt;" style="rhombus;whiteSpace=wrap;html=1;" parent="1" vertex="1">
          <mxGeometry x="513" y="330" width="157" height="60" as="geometry"/>
        </mxCell>
        <mxCell id="wu-LaleV2zq8ELQ2vTht-24" style="edgeStyle=orthogonalEdgeStyle;rounded=0;orthogonalLoop=1;jettySize=auto;html=1;exitX=1;exitY=0.5;exitDx=0;exitDy=0;entryX=0.75;entryY=0;entryDx=0;entryDy=0;" parent="1" source="XeTQekSoMw8yuTuayGuz-37" target="XeTQekSoMw8yuTuayGuz-39" edge="1">
          <mxGeometry relative="1" as="geometry">
            <Array as="points">
              <mxPoint x="1163" y="970"/>
              <mxPoint x="1240" y="970"/>
              <mxPoint x="1240" y="40"/>
              <mxPoint x="636" y="40"/>
            </Array>
          </mxGeometry>
        </mxCell>
        <mxCell id="XeTQekSoMw8yuTuayGuz-37" value="&lt;font style=&quot;font-size: 14px&quot;&gt;&amp;nbsp; &amp;nbsp; robot: show current &lt;br&gt;slots and&amp;nbsp;&lt;/font&gt;&lt;span style=&quot;font-size: 14px&quot;&gt;query &lt;br&gt;new food demands&lt;/span&gt;" style="shape=parallelogram;perimeter=parallelogramPerimeter;whiteSpace=wrap;html=1;" parent="1" vertex="1">
          <mxGeometry x="999" y="942.9047328404018" width="182" height="53" as="geometry"/>
        </mxCell>
        <mxCell id="0KGYfpHIyj1goIYr32e1-1" value="" style="edgeStyle=orthogonalEdgeStyle;rounded=0;orthogonalLoop=1;jettySize=auto;html=1;" parent="1" source="XeTQekSoMw8yuTuayGuz-38" target="XeTQekSoMw8yuTuayGuz-39" edge="1">
          <mxGeometry relative="1" as="geometry"/>
        </mxCell>
        <mxCell id="XeTQekSoMw8yuTuayGuz-38" value="&lt;span style=&quot;font-size: 14px&quot;&gt;start&lt;/span&gt;" style="strokeWidth=2;html=1;shape=mxgraph.flowchart.terminator;whiteSpace=wrap;" parent="1" vertex="1">
          <mxGeometry x="542" y="-39.481475830078125" width="100" height="60" as="geometry"/>
        </mxCell>
        <mxCell id="IFho0zkGOTvJAI6Bp0V7-4" style="edgeStyle=orthogonalEdgeStyle;rounded=0;orthogonalLoop=1;jettySize=auto;html=1;exitX=0.5;exitY=1;exitDx=0;exitDy=0;entryX=0.5;entryY=0;entryDx=0;entryDy=0;" parent="1" source="XeTQekSoMw8yuTuayGuz-39" target="IFho0zkGOTvJAI6Bp0V7-3" edge="1">
          <mxGeometry relative="1" as="geometry"/>
        </mxCell>
        <mxCell id="XeTQekSoMw8yuTuayGuz-39" value="&lt;span style=&quot;font-size: 14px&quot;&gt;user: input demands&lt;/span&gt;" style="shape=parallelogram;perimeter=parallelogramPerimeter;whiteSpace=wrap;html=1;" parent="1" vertex="1">
          <mxGeometry x="500.5" y="62.5" width="182" height="53" as="geometry"/>
        </mxCell>
        <mxCell id="XeTQekSoMw8yuTuayGuz-54" style="edgeStyle=orthogonalEdgeStyle;rounded=0;orthogonalLoop=1;jettySize=auto;html=1;exitX=0.5;exitY=0;exitDx=0;exitDy=0;entryX=1;entryY=0.5;entryDx=0;entryDy=0;" parent="1" source="XeTQekSoMw8yuTuayGuz-40" target="XeTQekSoMw8yuTuayGuz-39" edge="1">
          <mxGeometry relative="1" as="geometry">
            <Array as="points">
              <mxPoint x="981" y="89"/>
            </Array>
          </mxGeometry>
        </mxCell>
        <mxCell id="XeTQekSoMw8yuTuayGuz-40" value="&lt;span style=&quot;font-size: 14px&quot;&gt;&amp;nbsp; &amp;nbsp; robot:ask 1 and 2 and &lt;br&gt;give example to user&lt;/span&gt;" style="shape=parallelogram;perimeter=parallelogramPerimeter;whiteSpace=wrap;html=1;" parent="1" vertex="1">
          <mxGeometry x="890" y="334" width="182" height="53" as="geometry"/>
        </mxCell>
        <mxCell id="XeTQekSoMw8yuTuayGuz-58" value="" style="edgeStyle=orthogonalEdgeStyle;rounded=0;orthogonalLoop=1;jettySize=auto;html=1;entryX=0.5;entryY=0;entryDx=0;entryDy=0;" parent="1" source="XeTQekSoMw8yuTuayGuz-55" edge="1">
          <mxGeometry relative="1" as="geometry">
            <Array as="points">
              <mxPoint x="312" y="640"/>
              <mxPoint x="592" y="640"/>
            </Array>
            <mxPoint x="591" y="700" as="targetPoint"/>
          </mxGeometry>
        </mxCell>
        <mxCell id="XeTQekSoMw8yuTuayGuz-55" value="&lt;span style=&quot;font-size: 14px&quot;&gt;search restaurants with 2&lt;/span&gt;" style="rounded=1;whiteSpace=wrap;html=1;" parent="1" vertex="1">
          <mxGeometry x="240" y="500" width="144" height="50" as="geometry"/>
        </mxCell>
        <mxCell id="XeTQekSoMw8yuTuayGuz-62" value="" style="edgeStyle=orthogonalEdgeStyle;rounded=0;orthogonalLoop=1;jettySize=auto;html=1;" parent="1" source="XeTQekSoMw8yuTuayGuz-59" target="XeTQekSoMw8yuTuayGuz-61" edge="1">
          <mxGeometry relative="1" as="geometry"/>
        </mxCell>
        <mxCell id="XeTQekSoMw8yuTuayGuz-59" value="&lt;span style=&quot;font-size: 14px&quot;&gt;user: input confirm&lt;/span&gt;" style="shape=parallelogram;perimeter=parallelogramPerimeter;whiteSpace=wrap;html=1;" parent="1" vertex="1">
          <mxGeometry x="500.5" y="826.5" width="182" height="53" as="geometry"/>
        </mxCell>
        <mxCell id="wu-LaleV2zq8ELQ2vTht-17" style="edgeStyle=orthogonalEdgeStyle;rounded=0;orthogonalLoop=1;jettySize=auto;html=1;exitX=1;exitY=0;exitDx=0;exitDy=0;" parent="1" source="XeTQekSoMw8yuTuayGuz-61" target="wu-LaleV2zq8ELQ2vTht-16" edge="1">
          <mxGeometry relative="1" as="geometry">
            <mxPoint x="650" y="940" as="sourcePoint"/>
          </mxGeometry>
        </mxCell>
        <mxCell id="wu-LaleV2zq8ELQ2vTht-21" value="nothing about food" style="text;html=1;resizable=0;points=[];align=center;verticalAlign=middle;labelBackgroundColor=#ffffff;" parent="wu-LaleV2zq8ELQ2vTht-17" vertex="1" connectable="0">
          <mxGeometry x="-0.3002" relative="1" as="geometry">
            <mxPoint y="-2" as="offset"/>
          </mxGeometry>
        </mxCell>
        <mxCell id="wu-LaleV2zq8ELQ2vTht-22" value="yes" style="edgeStyle=orthogonalEdgeStyle;rounded=0;orthogonalLoop=1;jettySize=auto;html=1;exitX=0.5;exitY=1;exitDx=0;exitDy=0;entryX=0.5;entryY=0;entryDx=0;entryDy=0;entryPerimeter=0;" parent="1" source="XeTQekSoMw8yuTuayGuz-61" target="XeTQekSoMw8yuTuayGuz-87" edge="1">
          <mxGeometry relative="1" as="geometry"/>
        </mxCell>
        <mxCell id="wu-LaleV2zq8ELQ2vTht-23" style="edgeStyle=orthogonalEdgeStyle;rounded=0;orthogonalLoop=1;jettySize=auto;html=1;exitX=1;exitY=0.5;exitDx=0;exitDy=0;entryX=0;entryY=0.5;entryDx=0;entryDy=0;" parent="1" source="XeTQekSoMw8yuTuayGuz-61" target="XeTQekSoMw8yuTuayGuz-37" edge="1">
          <mxGeometry relative="1" as="geometry"/>
        </mxCell>
        <mxCell id="wu-LaleV2zq8ELQ2vTht-39" value="no wittout new values" style="text;html=1;resizable=0;points=[];align=center;verticalAlign=middle;labelBackgroundColor=#ffffff;" parent="wu-LaleV2zq8ELQ2vTht-23" vertex="1" connectable="0">
          <mxGeometry x="0.3909" y="-1" relative="1" as="geometry">
            <mxPoint as="offset"/>
          </mxGeometry>
        </mxCell>
        <mxCell id="wu-LaleV2zq8ELQ2vTht-32" style="edgeStyle=orthogonalEdgeStyle;rounded=0;orthogonalLoop=1;jettySize=auto;html=1;exitX=0;exitY=0.5;exitDx=0;exitDy=0;entryX=0;entryY=0.5;entryDx=0;entryDy=0;" parent="1" source="XeTQekSoMw8yuTuayGuz-61" target="wu-LaleV2zq8ELQ2vTht-25" edge="1">
          <mxGeometry relative="1" as="geometry">
            <mxPoint x="234" y="969.5714285714287" as="targetPoint"/>
            <Array as="points">
              <mxPoint x="20" y="970"/>
              <mxPoint x="20" y="267"/>
            </Array>
          </mxGeometry>
        </mxCell>
        <mxCell id="wu-LaleV2zq8ELQ2vTht-37" value="&lt;span style=&quot;text-align: left ; background-color: rgb(248 , 249 , 250)&quot;&gt;no but with changing values&lt;/span&gt;" style="text;html=1;resizable=0;points=[];align=center;verticalAlign=middle;labelBackgroundColor=#ffffff;" parent="wu-LaleV2zq8ELQ2vTht-32" vertex="1" connectable="0">
          <mxGeometry x="-0.0789" relative="1" as="geometry">
            <mxPoint x="250.5" y="291.5" as="offset"/>
          </mxGeometry>
        </mxCell>
        <mxCell id="IFho0zkGOTvJAI6Bp0V7-2" value="give up" style="edgeStyle=orthogonalEdgeStyle;rounded=0;orthogonalLoop=1;jettySize=auto;html=1;exitX=0.5;exitY=1;exitDx=0;exitDy=0;entryX=0.5;entryY=0;entryDx=0;entryDy=0;entryPerimeter=0;" parent="1" source="XeTQekSoMw8yuTuayGuz-61" target="IFho0zkGOTvJAI6Bp0V7-1" edge="1">
          <mxGeometry relative="1" as="geometry"/>
        </mxCell>
        <mxCell id="XeTQekSoMw8yuTuayGuz-61" value="&lt;font style=&quot;font-size: 14px&quot;&gt;ok?&lt;br&gt;&lt;/font&gt;" style="rhombus;whiteSpace=wrap;html=1;" parent="1" vertex="1">
          <mxGeometry x="513" y="940" width="157" height="60" as="geometry"/>
        </mxCell>
        <mxCell id="XeTQekSoMw8yuTuayGuz-80" value="if only 1" style="edgeStyle=orthogonalEdgeStyle;rounded=0;orthogonalLoop=1;jettySize=auto;html=1;exitX=0.5;exitY=1;exitDx=0;exitDy=0;entryX=0.5;entryY=0;entryDx=0;entryDy=0;" parent="1" source="XeTQekSoMw8yuTuayGuz-11" target="XeTQekSoMw8yuTuayGuz-76" edge="1">
          <mxGeometry x="0.9" y="1" relative="1" as="geometry">
            <mxPoint x="513" y="679.5714285714287" as="sourcePoint"/>
            <Array as="points">
              <mxPoint x="591" y="440"/>
              <mxPoint x="122" y="440"/>
            </Array>
            <mxPoint as="offset"/>
          </mxGeometry>
        </mxCell>
        <mxCell id="XeTQekSoMw8yuTuayGuz-81" value="if only 2" style="edgeStyle=orthogonalEdgeStyle;rounded=0;orthogonalLoop=1;jettySize=auto;html=1;exitX=0.5;exitY=1;exitDx=0;exitDy=0;entryX=0.5;entryY=0;entryDx=0;entryDy=0;" parent="1" source="XeTQekSoMw8yuTuayGuz-11" target="XeTQekSoMw8yuTuayGuz-55" edge="1">
          <mxGeometry x="0.8521" relative="1" as="geometry">
            <mxPoint x="591.5714285714287" y="709.5714285714287" as="sourcePoint"/>
            <mxPoint as="offset"/>
            <Array as="points">
              <mxPoint x="591" y="440"/>
              <mxPoint x="312" y="440"/>
            </Array>
          </mxGeometry>
        </mxCell>
        <mxCell id="XeTQekSoMw8yuTuayGuz-83" value="if 1 and 2" style="edgeStyle=orthogonalEdgeStyle;rounded=0;orthogonalLoop=1;jettySize=auto;html=1;exitX=0.5;exitY=1;exitDx=0;exitDy=0;entryX=0.5;entryY=0;entryDx=0;entryDy=0;" parent="1" source="XeTQekSoMw8yuTuayGuz-11" target="XeTQekSoMw8yuTuayGuz-77" edge="1">
          <mxGeometry x="0.7184" relative="1" as="geometry">
            <mxPoint as="offset"/>
            <mxPoint x="670.1428571428573" y="679.5714285714287" as="sourcePoint"/>
            <Array as="points">
              <mxPoint x="592" y="440"/>
              <mxPoint x="502" y="440"/>
            </Array>
          </mxGeometry>
        </mxCell>
        <mxCell id="XeTQekSoMw8yuTuayGuz-85" style="edgeStyle=orthogonalEdgeStyle;rounded=0;orthogonalLoop=1;jettySize=auto;html=1;exitX=0.5;exitY=1;exitDx=0;exitDy=0;entryX=0.5;entryY=0;entryDx=0;entryDy=0;" parent="1" source="XeTQekSoMw8yuTuayGuz-76" edge="1">
          <mxGeometry relative="1" as="geometry">
            <Array as="points">
              <mxPoint x="122" y="640"/>
              <mxPoint x="592" y="640"/>
            </Array>
            <mxPoint x="591" y="700" as="targetPoint"/>
          </mxGeometry>
        </mxCell>
        <mxCell id="XeTQekSoMw8yuTuayGuz-76" value="&lt;span style=&quot;font-size: 14px&quot;&gt;search restaurants with 1&lt;/span&gt;" style="rounded=1;whiteSpace=wrap;html=1;" parent="1" vertex="1">
          <mxGeometry x="50" y="500" width="144" height="50" as="geometry"/>
        </mxCell>
        <mxCell id="wu-LaleV2zq8ELQ2vTht-4" style="edgeStyle=orthogonalEdgeStyle;rounded=0;orthogonalLoop=1;jettySize=auto;html=1;exitX=0.5;exitY=1;exitDx=0;exitDy=0;entryX=0.5;entryY=0;entryDx=0;entryDy=0;" parent="1" source="XeTQekSoMw8yuTuayGuz-77" edge="1">
          <mxGeometry relative="1" as="geometry">
            <Array as="points">
              <mxPoint x="502" y="640"/>
              <mxPoint x="592" y="640"/>
            </Array>
            <mxPoint x="591" y="700" as="targetPoint"/>
          </mxGeometry>
        </mxCell>
        <mxCell id="XeTQekSoMw8yuTuayGuz-77" value="&lt;span style=&quot;font-size: 14px&quot;&gt;search restaurants with 1 and 2&lt;/span&gt;" style="rounded=1;whiteSpace=wrap;html=1;" parent="1" vertex="1">
          <mxGeometry x="429.5" y="500" width="144" height="50" as="geometry"/>
        </mxCell>
        <mxCell id="XeTQekSoMw8yuTuayGuz-87" value="&lt;font style=&quot;font-size: 14px&quot;&gt;stop&lt;/font&gt;" style="strokeWidth=2;html=1;shape=mxgraph.flowchart.terminator;whiteSpace=wrap;" parent="1" vertex="1">
          <mxGeometry x="429.5" y="1070" width="100" height="60" as="geometry"/>
        </mxCell>
        <mxCell id="0KGYfpHIyj1goIYr32e1-14" style="edgeStyle=orthogonalEdgeStyle;rounded=0;orthogonalLoop=1;jettySize=auto;html=1;exitX=0.5;exitY=1;exitDx=0;exitDy=0;entryX=0.5;entryY=0;entryDx=0;entryDy=0;" parent="1" source="wu-LaleV2zq8ELQ2vTht-25" target="XeTQekSoMw8yuTuayGuz-11" edge="1">
          <mxGeometry relative="1" as="geometry">
            <mxPoint x="591.5714285714287" y="296.7142857142858" as="sourcePoint"/>
          </mxGeometry>
        </mxCell>
        <mxCell id="wu-LaleV2zq8ELQ2vTht-7" style="edgeStyle=orthogonalEdgeStyle;rounded=0;orthogonalLoop=1;jettySize=auto;html=1;exitX=0.5;exitY=1;exitDx=0;exitDy=0;entryX=0.5;entryY=0;entryDx=0;entryDy=0;" parent="1" source="wu-LaleV2zq8ELQ2vTht-5" edge="1">
          <mxGeometry relative="1" as="geometry">
            <Array as="points">
              <mxPoint x="692" y="640"/>
              <mxPoint x="592" y="640"/>
            </Array>
            <mxPoint x="591" y="700" as="targetPoint"/>
          </mxGeometry>
        </mxCell>
        <mxCell id="wu-LaleV2zq8ELQ2vTht-5" value="&lt;span style=&quot;font-size: 14px&quot;&gt;search restaurants with 1 and 3&lt;/span&gt;" style="rounded=1;whiteSpace=wrap;html=1;" parent="1" vertex="1">
          <mxGeometry x="619" y="500" width="144" height="50" as="geometry"/>
        </mxCell>
        <mxCell id="wu-LaleV2zq8ELQ2vTht-10" style="edgeStyle=orthogonalEdgeStyle;rounded=0;orthogonalLoop=1;jettySize=auto;html=1;exitX=0.5;exitY=1;exitDx=0;exitDy=0;entryX=0.5;entryY=0;entryDx=0;entryDy=0;" parent="1" source="wu-LaleV2zq8ELQ2vTht-8" edge="1">
          <mxGeometry relative="1" as="geometry">
            <Array as="points">
              <mxPoint x="887" y="640"/>
              <mxPoint x="592" y="640"/>
            </Array>
            <mxPoint x="591" y="700" as="targetPoint"/>
          </mxGeometry>
        </mxCell>
        <mxCell id="wu-LaleV2zq8ELQ2vTht-8" value="&lt;span style=&quot;font-size: 14px&quot;&gt;search restaurants with 2 and 3&lt;/span&gt;" style="rounded=1;whiteSpace=wrap;html=1;" parent="1" vertex="1">
          <mxGeometry x="815" y="500" width="144" height="50" as="geometry"/>
        </mxCell>
        <mxCell id="wu-LaleV2zq8ELQ2vTht-11" value="if 1 or 2" style="text;html=1;strokeColor=none;fillColor=none;align=center;verticalAlign=middle;whiteSpace=wrap;rounded=0;" parent="1" vertex="1">
          <mxGeometry x="540" y="392.5" width="59" height="20" as="geometry"/>
        </mxCell>
        <mxCell id="wu-LaleV2zq8ELQ2vTht-14" style="edgeStyle=orthogonalEdgeStyle;rounded=0;orthogonalLoop=1;jettySize=auto;html=1;exitX=0.5;exitY=1;exitDx=0;exitDy=0;entryX=0.5;entryY=0;entryDx=0;entryDy=0;" parent="1" source="wu-LaleV2zq8ELQ2vTht-12" edge="1">
          <mxGeometry relative="1" as="geometry">
            <Array as="points">
              <mxPoint x="1083" y="640"/>
              <mxPoint x="592" y="640"/>
            </Array>
            <mxPoint x="591" y="700" as="targetPoint"/>
          </mxGeometry>
        </mxCell>
        <mxCell id="wu-LaleV2zq8ELQ2vTht-12" value="&lt;span style=&quot;font-size: 14px&quot;&gt;search restaurants with 1 and 2 and 3&lt;/span&gt;" style="rounded=1;whiteSpace=wrap;html=1;" parent="1" vertex="1">
          <mxGeometry x="1011" y="500" width="144" height="50" as="geometry"/>
        </mxCell>
        <mxCell id="wu-LaleV2zq8ELQ2vTht-20" value="" style="edgeStyle=orthogonalEdgeStyle;rounded=0;orthogonalLoop=1;jettySize=auto;html=1;entryX=1;entryY=0.5;entryDx=0;entryDy=0;" parent="1" source="wu-LaleV2zq8ELQ2vTht-16" target="XeTQekSoMw8yuTuayGuz-59" edge="1">
          <mxGeometry relative="1" as="geometry">
            <mxPoint x="706.8" y="853.5000000000002" as="targetPoint"/>
          </mxGeometry>
        </mxCell>
        <mxCell id="wu-LaleV2zq8ELQ2vTht-16" value="&lt;span style=&quot;font-size: 14px&quot;&gt;&amp;nbsp; &amp;nbsp;robot:give example answers(yes or no or change)&lt;/span&gt;" style="shape=parallelogram;perimeter=parallelogramPerimeter;whiteSpace=wrap;html=1;" parent="1" vertex="1">
          <mxGeometry x="805" y="828" width="182" height="50" as="geometry"/>
        </mxCell>
        <mxCell id="wu-LaleV2zq8ELQ2vTht-25" value="&lt;font style=&quot;font-size: 14px&quot;&gt;extract values and update slots&lt;/font&gt;" style="rounded=1;whiteSpace=wrap;html=1;" parent="1" vertex="1">
          <mxGeometry x="519" y="240" width="144" height="56" as="geometry"/>
        </mxCell>
        <mxCell id="IFho0zkGOTvJAI6Bp0V7-1" value="&lt;font style=&quot;font-size: 14px&quot;&gt;stop&lt;/font&gt;" style="strokeWidth=2;html=1;shape=mxgraph.flowchart.terminator;whiteSpace=wrap;" parent="1" vertex="1">
          <mxGeometry x="658" y="1070" width="100" height="60" as="geometry"/>
        </mxCell>
        <mxCell id="IFho0zkGOTvJAI6Bp0V7-5" value="no" style="edgeStyle=orthogonalEdgeStyle;rounded=0;orthogonalLoop=1;jettySize=auto;html=1;exitX=0.5;exitY=1;exitDx=0;exitDy=0;entryX=0.5;entryY=0;entryDx=0;entryDy=0;" parent="1" source="IFho0zkGOTvJAI6Bp0V7-3" target="wu-LaleV2zq8ELQ2vTht-25" edge="1">
          <mxGeometry relative="1" as="geometry"/>
        </mxCell>
        <mxCell id="IFho0zkGOTvJAI6Bp0V7-7" value="yes" style="edgeStyle=orthogonalEdgeStyle;rounded=0;orthogonalLoop=1;jettySize=auto;html=1;exitX=1;exitY=0.5;exitDx=0;exitDy=0;entryX=0;entryY=0.5;entryDx=0;entryDy=0;entryPerimeter=0;" parent="1" source="IFho0zkGOTvJAI6Bp0V7-3" target="IFho0zkGOTvJAI6Bp0V7-6" edge="1">
          <mxGeometry relative="1" as="geometry"/>
        </mxCell>
        <mxCell id="IFho0zkGOTvJAI6Bp0V7-3" value="&lt;font style=&quot;font-size: 14px&quot;&gt;give up?&lt;br&gt;&lt;/font&gt;" style="rhombus;whiteSpace=wrap;html=1;" parent="1" vertex="1">
          <mxGeometry x="512.5" y="142.5" width="157" height="60" as="geometry"/>
        </mxCell>
        <mxCell id="IFho0zkGOTvJAI6Bp0V7-6" value="&lt;font style=&quot;font-size: 14px&quot;&gt;stop&lt;/font&gt;" style="strokeWidth=2;html=1;shape=mxgraph.flowchart.terminator;whiteSpace=wrap;" parent="1" vertex="1">
          <mxGeometry x="758" y="142.45974205280174" width="100" height="60" as="geometry"/>
        </mxCell>
        <mxCell id="xyPe80Yc6pMu4g7127d--4" style="edgeStyle=orthogonalEdgeStyle;rounded=0;orthogonalLoop=1;jettySize=auto;html=1;exitX=0.5;exitY=1;exitDx=0;exitDy=0;entryX=0;entryY=0.5;entryDx=0;entryDy=0;" edge="1" parent="1" source="xyPe80Yc6pMu4g7127d--1" target="XeTQekSoMw8yuTuayGuz-59">
          <mxGeometry relative="1" as="geometry">
            <Array as="points">
              <mxPoint x="355" y="853"/>
            </Array>
          </mxGeometry>
        </mxCell>
        <mxCell id="xyPe80Yc6pMu4g7127d--1" value="&lt;span style=&quot;font-size: 14px ; white-space: normal&quot;&gt;&amp;nbsp; &amp;nbsp;robot:output&amp;nbsp;&lt;/span&gt;&lt;span style=&quot;font-size: 14px&quot;&gt;restaurants&lt;/span&gt;&lt;span style=&quot;font-size: 14px ; white-space: normal&quot;&gt;&amp;nbsp;&lt;/span&gt;&lt;br style=&quot;font-size: 14px ; white-space: normal&quot;&gt;&lt;span style=&quot;font-size: 14px ; white-space: normal&quot;&gt;list and confirm&lt;/span&gt;" style="shape=parallelogram;perimeter=parallelogramPerimeter;whiteSpace=wrap;html=1;" vertex="1" parent="1">
          <mxGeometry x="255" y="703.5" width="200" height="53" as="geometry"/>
        </mxCell>
        <mxCell id="xyPe80Yc6pMu4g7127d--3" value="Y" style="edgeStyle=orthogonalEdgeStyle;rounded=0;orthogonalLoop=1;jettySize=auto;html=1;exitX=0;exitY=0.5;exitDx=0;exitDy=0;" edge="1" parent="1" source="xyPe80Yc6pMu4g7127d--2" target="xyPe80Yc6pMu4g7127d--1">
          <mxGeometry relative="1" as="geometry"/>
        </mxCell>
        <mxCell id="xyPe80Yc6pMu4g7127d--6" value="N" style="edgeStyle=orthogonalEdgeStyle;rounded=0;orthogonalLoop=1;jettySize=auto;html=1;exitX=1;exitY=0.5;exitDx=0;exitDy=0;entryX=0;entryY=0.5;entryDx=0;entryDy=0;" edge="1" parent="1" source="xyPe80Yc6pMu4g7127d--2" target="xyPe80Yc6pMu4g7127d--5">
          <mxGeometry relative="1" as="geometry"/>
        </mxCell>
        <mxCell id="xyPe80Yc6pMu4g7127d--2" value="&lt;font&gt;&lt;font style=&quot;font-size: 14px&quot;&gt;result ?&lt;/font&gt;&lt;br&gt;&lt;/font&gt;" style="rhombus;whiteSpace=wrap;html=1;" vertex="1" parent="1">
          <mxGeometry x="513.5" y="700" width="157" height="60" as="geometry"/>
        </mxCell>
        <mxCell id="xyPe80Yc6pMu4g7127d--7" style="edgeStyle=orthogonalEdgeStyle;rounded=0;orthogonalLoop=1;jettySize=auto;html=1;exitX=1;exitY=0.5;exitDx=0;exitDy=0;entryX=1;entryY=0.5;entryDx=0;entryDy=0;" edge="1" parent="1" source="xyPe80Yc6pMu4g7127d--5" target="XeTQekSoMw8yuTuayGuz-39">
          <mxGeometry relative="1" as="geometry">
            <Array as="points">
              <mxPoint x="1180" y="730"/>
              <mxPoint x="1180" y="89"/>
            </Array>
          </mxGeometry>
        </mxCell>
        <mxCell id="xyPe80Yc6pMu4g7127d--5" value="&lt;font style=&quot;font-size: 14px&quot;&gt;&amp;nbsp; &amp;nbsp; &amp;nbsp; robot: show current &lt;br&gt;slot values and ask&lt;br&gt;&amp;nbsp;new demands&lt;br&gt;&lt;/font&gt;" style="shape=parallelogram;perimeter=parallelogramPerimeter;whiteSpace=wrap;html=1;" vertex="1" parent="1">
          <mxGeometry x="802" y="703.5" width="166" height="53" as="geometry"/>
        </mxCell>
      </root>
    </mxGraphModel>
  </diagram>
</mxfile>
